# xmcd
#
# Track frame offsets:
#	150
#	16942
#	34657
#	48790
#	65434
#	81181
#	93220
#	113334
#	129789
#	146275
#	165405
#	183359
#	198447
#	215287
#	234209
#	255737
#
# Disc length: 3589 seconds
#
# Revision: 1
# Processed by: cddbd v1.5.2PL0 Copyright (c) Steve Scherf et al.
# Submitted via: audiograbber 1.83.01
#
DISCID=ba0e0310
DTITLE=Willie Mack - The Journey
DYEAR=2009
DGENRE=Country
TTITLE0=The Journey
TTITLE1=Howdy Eh
TTITLE2=A Love Like That
TTITLE3=She Won't Be Long
TTITLE4=You're My Hometown
TTITLE5=Love Walked In
TTITLE6=Everything I Need
TTITLE7=Just The Way You Are
TTITLE8=I'm Gonna Love Her
TTITLE9=Hold You
TTITLE10=See You When I See You
TTITLE11=Springsteen
TTITLE12=Get There
TTITLE13=Places I Ain't Never Seen
TTITLE14=Wide Open
TTITLE15=Just Jesus
EXTD=
EXTT0=
EXTT1=
EXTT2=
EXTT3=
EXTT4=
EXTT5=
EXTT6=
EXTT7=
EXTT8=
EXTT9=
EXTT10=
EXTT11=
EXTT12=
EXTT13=
EXTT14=
EXTT15=
PLAYORDER=
